{"accessors":[{"bufferView":0,"byteOffset":0,"componentType":5126,"count":243,"max":[8.5,1.5,6],"min":[-8.5,-1.5,-6],"normalized":false,"type":"VEC3"},{"bufferView":1,"byteOffset":0,"componentType":5126,"count":243,"max":[1,0.000031,0.000076,1],"min":[-1,-1,-1,-1],"normalized":false,"type":"VEC4"},{"bufferView":2,"byteOffset":0,"componentType":5126,"count":243,"max":[1,1,1],"min":[-1,-1,-1],"normalized":false,"type":"VEC3"},{"bufferView":3,"byteOffset":0,"componentType":5126,"count":243,"max":[1,1],"min":[0,0],"normalized":false,"type":"VEC2"},{"bufferView":4,"byteOffset":0,"componentType":5125,"count":243,"max":[242],"min":[0],"normalized":false,"type":"SCALAR"},{"bufferView":5,"byteOffset":0,"componentType":5126,"count":60,"max":[5,1.5,5],"min":[1,-1.5,-5],"normalized":false,"type":"VEC3"},{"bufferView":6,"byteOffset":0,"componentType":5126,"count":60,"max":[0,0,0.000076,1],"min":[-1,-1,-1,-1],"normalized":false,"type":"VEC4"},{"bufferView":7,"byteOffset":0,"componentType":5126,"count":60,"max":[1,1,1],"min":[-1,-1,-1],"normalized":false,"type":"VEC3"},{"bufferView":8,"byteOffset":0,"componentType":5126,"count":60,"max":[1,1],"min":[0,0],"normalized":false,"type":"VEC2"},{"bufferView":9,"byteOffset":0,"componentType":5125,"count":60,"max":[59],"min":[0],"normalized":false,"type":"SCALAR"},{"bufferView":10,"byteOffset":0,"componentType":5126,"count":120,"max":[10,1.5,7.5],"min":[-10,-1.5,-7.5],"normalized":false,"type":"VEC3"},{"bufferView":11,"byteOffset":0,"componentType":5126,"count":120,"max":[0,0,0.000076,1],"min":[-1,-1,-1,-1],"normalized":false,"type":"VEC4"},{"bufferView":12,"byteOffset":0,"componentType":5126,"count":120,"max":[1,1,1],"min":[-1,-1,-1],"normalized":false,"type":"VEC3"},{"bufferView":13,"byteOffset":0,"componentType":5126,"count":120,"max":[1,1],"min":[0,0],"normalized":false,"type":"VEC2"},{"bufferView":14,"byteOffset":0,"componentType":5125,"count":120,"max":[119],"min":[0],"normalized":false,"type":"SCALAR"},{"bufferView":15,"byteOffset":0,"componentType":5126,"count":60,"max":[4,1.5,-0.5],"min":[-4,-1.5,-12.5],"normalized":false,"type":"VEC3"},{"bufferView":16,"byteOffset":0,"componentType":5126,"count":60,"max":[0,0,0.000076,1],"min":[-1,-1,-1,-1],"normalized":false,"type":"VEC4"},{"bufferView":17,"byteOffset":0,"componentType":5126,"count":60,"max":[1,1,1],"min":[-1,-1,-1],"normalized":false,"type":"VEC3"},{"bufferView":18,"byteOffset":0,"componentType":5126,"count":60,"max":[1,1],"min":[0,0],"normalized":false,"type":"VEC2"},{"bufferView":19,"byteOffset":0,"componentType":5125,"count":60,"max":[59],"min":[0],"normalized":false,"type":"SCALAR"},{"bufferView":20,"byteOffset":0,"componentType":5126,"count":1257,"max":[22,4.5,5],"min":[-27,-1.5,-26],"normalized":false,"type":"VEC3"},{"bufferView":21,"byteOffset":0,"componentType":5126,"count":1257,"max":[1,0.000046,0.002463,1],"min":[-1,-1,-1,1],"normalized":false,"type":"VEC4"},{"bufferView":22,"byteOffset":0,"componentType":5126,"count":1257,"max":[1,1,1],"min":[-1,-1,-1],"normalized":false,"type":"VEC3"},{"bufferView":23,"byteOffset":0,"componentType":5126,"count":1257,"max":[1,1],"min":[0,0],"normalized":false,"type":"VEC2"},{"bufferView":24,"byteOffset":0,"componentType":5125,"count":1257,"max":[1256],"min":[0],"normalized":false,"type":"SCALAR"}],"asset":{"generator":"Godot Engine v4.2.1.stable.mono.official@b09f793f564a6c95dc76acc654b390e68441bd01","version":"2.0"},"bufferViews":[{"buffer":0,"byteLength":2916,"byteOffset":0},{"buffer":0,"byteLength":3888,"byteOffset":2916},{"buffer":0,"byteLength":2916,"byteOffset":6804},{"buffer":0,"byteLength":1944,"byteOffset":9720},{"buffer":0,"byteLength":972,"byteOffset":11664},{"buffer":0,"byteLength":720,"byteOffset":12636},{"buffer":0,"byteLength":960,"byteOffset":13356},{"buffer":0,"byteLength":720,"byteOffset":14316},{"buffer":0,"byteLength":480,"byteOffset":15036},{"buffer":0,"byteLength":240,"byteOffset":15516},{"buffer":0,"byteLength":1440,"byteOffset":15756},{"buffer":0,"byteLength":1920,"byteOffset":17196},{"buffer":0,"byteLength":1440,"byteOffset":19116},{"buffer":0,"byteLength":960,"byteOffset":20556},{"buffer":0,"byteLength":480,"byteOffset":21516},{"buffer":0,"byteLength":720,"byteOffset":21996},{"buffer":0,"byteLength":960,"byteOffset":22716},{"buffer":0,"byteLength":720,"byteOffset":23676},{"buffer":0,"byteLength":480,"byteOffset":24396},{"buffer":0,"byteLength":240,"byteOffset":24876},{"buffer":0,"byteLength":15084,"byteOffset":25116},{"buffer":0,"byteLength":20112,"byteOffset":40200},{"buffer":0,"byteLength":15084,"byteOffset":60312},{"buffer":0,"byteLength":10056,"byteOffset":75396},{"buffer":0,"byteLength":5028,"byteOffset":85452}],"buffers":[{"byteLength":90480,"uri":"main_level0.bin"}],"extensions":{"KHR_lights_punctual":{"lights":[{"color":[1,1,1],"intensity":1,"range":340282346638528860000000000000000000000,"type":"directional"}]}},"extensionsUsed":["GODOT_single_root","KHR_lights_punctual"],"materials":[{"extensions":{},"pbrMetallicRoughness":{"baseColorFactor":[0.99999988079071,0.99999988079071,0.99999988079071,1],"metallicFactor":0,"roughnessFactor":1}},{"extensions":{},"pbrMetallicRoughness":{"baseColorFactor":[0.99999988079071,0.99999988079071,0.99999988079071,1],"metallicFactor":0,"roughnessFactor":1}},{"extensions":{},"pbrMetallicRoughness":{"baseColorFactor":[0.99999988079071,0.99999988079071,0.99999988079071,1],"metallicFactor":0,"roughnessFactor":1}},{"extensions":{},"pbrMetallicRoughness":{"baseColorFactor":[0.99999988079071,0.99999988079071,0.99999988079071,1],"metallicFactor":0,"roughnessFactor":1}},{"extensions":{},"pbrMetallicRoughness":{"baseColorFactor":[0.99999988079071,0.99999988079071,0.99999988079071,1],"metallicFactor":0,"roughnessFactor":1}}],"meshes":[{"extras":{"targetNames":[]},"primitives":[{"attributes":{"NORMAL":2,"POSITION":0,"TANGENT":1,"TEXCOORD_0":3},"indices":4,"material":0,"mode":4}]},{"extras":{"targetNames":[]},"primitives":[{"attributes":{"NORMAL":7,"POSITION":5,"TANGENT":6,"TEXCOORD_0":8},"indices":9,"material":1,"mode":4}]},{"extras":{"targetNames":[]},"primitives":[{"attributes":{"NORMAL":12,"POSITION":10,"TANGENT":11,"TEXCOORD_0":13},"indices":14,"material":2,"mode":4}]},{"extras":{"targetNames":[]},"primitives":[{"attributes":{"NORMAL":17,"POSITION":15,"TANGENT":16,"TEXCOORD_0":18},"indices":19,"material":3,"mode":4}]},{"extras":{"targetNames":[]},"primitives":[{"attributes":{"NORMAL":22,"POSITION":20,"TANGENT":21,"TEXCOORD_0":23},"indices":24,"material":4,"mode":4}]}],"nodes":[{"children":[1,2,3,6,8,10,12,24],"extensions":{},"name":"MainLevel"},{"extensions":{},"name":"WorldEnvironment"},{"extensions":{"KHR_lights_punctual":{"light":0}},"name":"DirectionalLight3D","rotation":[-0.12941072881222,0.836515307426453,0.482963681221008,0.22414530813694]},{"children":[4,5],"extensions":{},"mesh":0,"name":"Overhang2","translation":[-18.5,1.5,-1]},{"extensions":{},"name":"Overhang22","translation":[3,0,4]},{"extensions":{},"name":"Corridor6","rotation":[0,-0.70710676908493,0,0.70710676908493],"translation":[-3.5,-0.25,-5]},{"children":[7],"extensions":{},"mesh":1,"name":"Overhang 22","translation":[-22,1.5,-14]},{"extensions":{},"name":"Overhang 3","translation":[-2,0,0]},{"children":[9],"extensions":{},"mesh":2,"name":"Overhang 33","translation":[-2,1.5,-17.5]},{"extensions":{},"name":"Overhang 4"},{"children":[11],"extensions":{},"mesh":3,"name":"Overhang 43","translation":[18,1.5,-10.5]},{"extensions":{},"name":"Overhang 5","translation":[0,0,6]},{"children":[13],"extensions":{},"mesh":4,"name":"Room2","translation":[0,1.5,1]},{"children":[14,15,16,17,18,19,20,21,22,23],"extensions":{},"name":"CSGCombiner3D"},{"extensions":{},"name":"Room22","translation":[-18.5,1.5,-2]},{"extensions":{},"name":"Corridor","translation":[-7.5,-0.25,0]},{"extensions":{},"name":"Corridor2","rotation":[0,-0.70710676908493,0,0.70710676908493],"translation":[-22,-0.25,-9]},{"extensions":{},"name":"Corridor5","translation":[-14,-0.25,-14.5]},{"extensions":{},"name":"Corridor3","rotation":[0,-0.70710676908493,0,0.70710676908493],"translation":[-22,2.75,-9]},{"extensions":{},"name":"Corridor62","translation":[11,2.75,-19.5]},{"extensions":{},"name":"Corridor4","rotation":[0,-0.70710676908493,0,0.70710676908493],"translation":[-8.5,2.75,-8.5]},{"extensions":{},"name":"Room3","translation":[-22,1.5,-15]},{"extensions":{},"name":"Room4","translation":[-2,1.5,-18.5]},{"extensions":{},"name":"Room5","translation":[18,1.5,-11.5]},{"extensions":{},"name":"Sprite3D","rotation":[-0,1,-0,0],"scale":[-1.81500005722046,-15.4399995803833,-1.91999995708466],"translation":[-3,1,-10]}],"scene":0,"scenes":[{"nodes":[0]}]}